<svg xmlns="http://www.w3.org/2000/svg" viewBox="0 0 364.66 39.2"><defs><style>.cls-1{font-size:23.92px;}.cls-1,.cls-12{fill:gray;font-family:ProductSans-Regular, Product Sans;}.cls-2{letter-spacing:-0.01em;}.cls-3{letter-spacing:-0.01em;}.cls-4{letter-spacing:0em;}.cls-5{letter-spacing:0em;}.cls-6{letter-spacing:-0.03em;}.cls-7{letter-spacing:-0.02em;}.cls-8{letter-spacing:0em;}.cls-9{letter-spacing:-0.02em;}.cls-10{letter-spacing:-0.01em;}.cls-11{letter-spacing:0em;}.cls-12{font-size:11.81px;}.cls-13{letter-spacing:-0.01em;}.cls-14{letter-spacing:0em;}.cls-15{letter-spacing:-0.01em;}.cls-16{letter-spacing:0em;}.cls-17{letter-spacing:0em;}.cls-18{letter-spacing:-0.02em;}.cls-19{letter-spacing:-0.01em;}.cls-20{letter-spacing:0em;}.cls-21{letter-spacing:-0.04em;}.cls-22{letter-spacing:-0.08em;}.cls-23{fill:#0f9d58;}.cls-24{fill:#4285f4;}.cls-25{fill:#ea4335;}.cls-26{fill:#fbbc05;}</style></defs><g id="Layer_2" data-name="Layer 2"><g id="Layer_4" data-name="Layer 4"><text class="cls-1" transform="translate(97.98 20.52)"><tspan class="cls-2">D</tspan><tspan class="cls-3" x="16.17" y="0">e</tspan><tspan class="cls-2" x="28.75" y="0">v</tspan><tspan class="cls-4" x="40.3" y="0">e</tspan><tspan class="cls-5" x="53.13" y="0">lo</tspan><tspan x="71.16" y="0">per</tspan><tspan class="cls-6" x="106.35" y="0"> </tspan><tspan class="cls-7" x="110.89" y="0">S</tspan><tspan class="cls-4" x="123.52" y="0">t</tspan><tspan class="cls-8" x="131.99" y="0">ud</tspan><tspan x="158.49" y="0">e</tspan><tspan class="cls-7" x="171.31" y="0">n</tspan><tspan x="183.68" y="0">t</tspan><tspan class="cls-9" x="192.15" y="0"> </tspan><tspan class="cls-10" x="196.93" y="0">C</tspan><tspan x="214.13" y="0">lu</tspan><tspan class="cls-5" x="231.97" y="0">b</tspan><tspan class="cls-11" x="245.63" y="0">s</tspan></text><text class="cls-12" transform="translate(98.94 36.22)"><tspan class="cls-13">M</tspan><tspan class="cls-14" x="9.62" y="0">ar B</tspan><tspan class="cls-15" x="29.54" y="0">a</tspan><tspan class="cls-16" x="35.51" y="0">s</tspan><tspan x="40.94" y="0">el</tspan><tspan class="cls-17" x="49.68" y="0">io</tspan><tspan x="58.77" y="0">s</tspan><tspan class="cls-18" x="64.14" y="0" xml:space="preserve"> C</tspan><tspan class="cls-17" x="74.88" y="0">o</tspan><tspan class="cls-14" x="81.43" y="0">l</tspan><tspan class="cls-17" x="83.84" y="0">l</tspan><tspan class="cls-16" x="86.19" y="0">e</tspan><tspan class="cls-15" x="92.58" y="0">g</tspan><tspan x="99.32" y="0">e </tspan><tspan class="cls-13" x="108.24" y="0">o</tspan><tspan x="114.68" y="0">f </tspan><tspan class="cls-19" x="121.62" y="0">E</tspan><tspan class="cls-15" x="127.91" y="0">n</tspan><tspan x="134.25" y="0">gin</tspan><tspan class="cls-16" x="150.04" y="0">e</tspan><tspan class="cls-20" x="156.43" y="0">eri</tspan><tspan class="cls-15" x="169.65" y="0">n</tspan><tspan x="175.99" y="0">g and</tspan><tspan class="cls-21" x="204.61" y="0"> </tspan><tspan class="cls-22" x="206.74" y="0">T</tspan><tspan class="cls-16" x="212.17" y="0">e</tspan><tspan x="218.55" y="0">chn</tspan><tspan class="cls-17" x="237.52" y="0">ol</tspan><tspan class="cls-20" x="246.42" y="0">ogy</tspan></text><path class="cls-23" d="M59,19.33c-4.1-2.41-8.21-4.8-12.3-7.23a6.11,6.11,0,0,1-3-6.49,6,6,0,0,1,4.53-5,6.57,6.57,0,0,1,5.14.82q10.47,6.08,21,12.1c2.43,1.39,3.8,3.35,3.59,6.21a6.25,6.25,0,0,1-4.15,5.52l-.59.27A9.21,9.21,0,0,1,67.3,24C64.59,22.38,61.78,20.89,59,19.33Z"/><path class="cls-24" d="M18.88,19.21C23,21.59,27,23.94,31.08,26.35a6.24,6.24,0,0,1,1.09,10.3,6.05,6.05,0,0,1-7,.78Q14,31.09,3,24.57A5.8,5.8,0,0,1,0,18.63,6.33,6.33,0,0,1,4.5,13.16a8.91,8.91,0,0,1,6.33,1.47C13.46,16.25,16.19,17.69,18.88,19.21Z"/><path class="cls-25" d="M18.88,19.21c-2.69-1.52-5.42-3-8-4.58A8.91,8.91,0,0,0,4.5,13.16c6.93-4,13.81-8.11,20.79-12a6.11,6.11,0,0,1,8.29,2.47,6.21,6.21,0,0,1-2.31,8.49C27.17,14.51,23,16.84,18.88,19.21Z"/><path class="cls-26" d="M59,19.33c2.77,1.56,5.58,3.05,8.29,4.71a9.21,9.21,0,0,0,5.84,1.5C69.37,27.76,65.6,30,61.83,32.21c-2.8,1.64-5.62,3.25-8.44,4.87-3.35,1.92-7.1,1.1-8.94-1.94s-.8-6.89,2.62-8.9C51,23.9,55,21.63,59,19.33Z"/></g></g></svg>